<?xml version="1.0" encoding="UTF-8"?>
<svg version="1.1" xmlns="http://www.w3.org/2000/svg" width="4500" height="4500">
<path d="M0 0 C33.66 0 67.32 0 102 0 C100.55747978 25.9653639 96.17903766 48.34741298 76.40625 66.36328125 C64.40750712 76.30553856 45.00460332 88 29 88 C31.28674588 91.14427558 33.71110101 93.6595198 36.6875 96.125 C52.27813891 109.57518013 62.73168038 129.58048474 65 150 C66.72431557 175.36516549 61.39913676 199.84147587 45.015625 219.73046875 C18.22440753 249.89654889 -19.01840796 261.21609162 -58.48382187 263.66505623 C-65.35579889 264.06327504 -72.22081112 264.16473013 -79.10341644 264.19923019 C-81.30919797 264.21134857 -83.5148107 264.23086208 -85.72052002 264.25234985 C-91.97817287 264.31294954 -98.23578888 264.36801812 -104.49365234 264.40136719 C-108.35725943 264.42248223 -112.22052254 264.4578843 -116.08393097 264.50212479 C-117.53650085 264.51611439 -118.98913113 264.52496786 -120.44176483 264.52817917 C-133.1209478 264.5592287 -144.68793281 265.26520127 -154.375 274.1875 C-156.68221611 278.18075865 -156.76410727 281.49495089 -156 286 C-153.77575732 290.91186926 -150.96961277 293.07285997 -146.1875 295.19140625 C-134.31123928 299.58138119 -121.08918074 299.14657621 -108.60083008 299.15771484 C-106.65092713 299.16551427 -104.7010242 299.17331774 -102.75112188 299.18127275 C-100.68229135 299.18891795 -98.61346499 299.19433926 -96.54462624 299.19923019 C-92.1993638 299.21005609 -87.85417526 299.23033677 -83.50895691 299.25234985 C-71.16184899 299.31379125 -58.81474809 299.36816232 -46.4675293 299.40136719 C-39.62703311 299.41984179 -32.78666404 299.44892927 -25.94626158 299.4893719 C-22.34309284 299.51021633 -18.74008252 299.52586659 -15.13685036 299.52817917 C19.35591233 299.5568027 50.68526935 304.51929223 76.40234375 329.31640625 C96.18670714 350.54377503 102.57740762 379.85219678 101.97827148 408.09130859 C101.40458917 422.86057658 98.46013637 436.62371764 92 450 C91.58234375 450.886875 91.1646875 451.77375 90.734375 452.6875 C77.10786192 479.62727298 51.40708343 497.63105105 23.39892578 507.22998047 C11.91783406 510.91524032 -0.00712428 513.69888612 -12 515 C-12.7471439 515.08189953 -13.4942878 515.16379906 -14.26407242 515.24818039 C-23.99641724 516.1913829 -33.7006769 516.15567326 -43.46777344 516.16113281 C-45.4140024 516.1657699 -47.36023047 516.17079573 -49.30645752 516.17617798 C-54.56285161 516.18921526 -59.81923297 516.19572946 -65.07564068 516.20018864 C-68.36773279 516.20313247 -71.65982153 516.20723959 -74.95191193 516.21169281 C-85.27608972 516.22534275 -95.60025968 516.23502253 -105.92444587 516.2388947 C-117.79860202 516.24337425 -129.67264299 516.260928 -141.54676414 516.2898953 C-150.75652413 516.31157511 -159.96625186 516.32160228 -169.17603707 516.32293582 C-174.66270918 516.32397901 -180.14927266 516.32978323 -185.63591766 516.34775543 C-190.80050535 516.36434631 -195.96490398 516.36633865 -201.12950897 516.35761642 C-203.01272085 516.35685201 -204.89594337 516.36110904 -206.77912903 516.37107468 C-234.02748591 516.50668685 -257.14238934 509.8296232 -277.375 490.76171875 C-291.70087345 475.96329045 -298.15450522 457.24207819 -298.25 436.9375 C-298.2809375 435.33358398 -298.2809375 435.33358398 -298.3125 433.69726562 C-298.36416788 423.00847319 -296.2693245 413.36321787 -291.3125 403.875 C-290.78813354 402.85563354 -290.78813354 402.85563354 -290.25317383 401.81567383 C-287.14330331 395.95076895 -283.5062158 390.88645304 -279 386 C-277.78376953 384.64648438 -277.78376953 384.64648438 -276.54296875 383.265625 C-269.75995747 376.07543442 -262.45616446 371.01106042 -254 366 C-253.03835938 365.4225 -252.07671875 364.845 -251.0859375 364.25 C-250.39757813 363.8375 -249.70921875 363.425 -249 363 C-250.16015625 361.98292969 -250.16015625 361.98292969 -251.34375 360.9453125 C-266.18126788 347.76728528 -274.50993205 334.33370435 -279 315 C-279.47308594 316.01578125 -279.94617187 317.0315625 -280.43359375 318.078125 C-284.79324927 327.23407161 -289.5191114 335.14926105 -296 343 C-296.61230469 343.77601563 -297.22460938 344.55203125 -297.85546875 345.3515625 C-320.70134999 372.92249807 -359.87532139 385.77424276 -394 391 C-395.44487793 391.22429688 -395.44487793 391.22429688 -396.91894531 391.453125 C-449.44854935 399.15901696 -508.68050019 396.45755917 -557 373 C-558.01803711 372.5064502 -558.01803711 372.5064502 -559.05664062 372.00292969 C-572.22313021 365.52305282 -583.31785325 357.06341934 -594 347 C-594.66386719 346.40058594 -595.32773438 345.80117187 -596.01171875 345.18359375 C-623.95152105 318.94398226 -636.73840581 277.19937989 -638.07684326 239.85601807 C-638.22175361 234.34182922 -638.25474872 228.82838633 -638.25 223.3125 C-638.24940582 222.55372559 -638.24881165 221.79495117 -638.24819946 221.01318359 C-638.21910319 211.3000309 -637.82839561 201.68163287 -637 192 C-637.45101074 193.22775146 -637.90202148 194.45550293 -638.36669922 195.72045898 C-657.32910164 247.34033225 -657.32910164 247.34033225 -658.45655823 250.40951538 C-659.198373 252.42890287 -659.94018413 254.4482917 -660.68199158 256.46768188 C-662.53571109 261.51396797 -664.38949619 266.56022995 -666.2434082 271.60644531 C-670.00873299 281.85560315 -673.77296157 292.1051615 -677.53515625 302.35546875 C-684.81557318 322.18974543 -692.10379247 342.0211362 -699.4201355 361.8421936 C-700.17712521 363.89330348 -700.93374199 365.94455104 -701.68997192 367.99594116 C-702.73096766 370.8193345 -703.77345848 373.64217101 -704.81640625 376.46484375 C-705.1259021 377.30501038 -705.43539795 378.145177 -705.75427246 379.01080322 C-707.8854932 384.7709864 -707.8854932 384.7709864 -709 387 C-748.6 387 -788.2 387 -829 387 C-830.98981356 381.69383052 -832.78564243 376.56681042 -834.27050781 371.13134766 C-834.47829078 370.38247095 -834.68607374 369.63359425 -834.90015316 368.86202431 C-835.58786315 366.38029328 -836.27045409 363.89718394 -836.953125 361.4140625 C-837.44661424 359.62992802 -837.94046395 357.84589322 -838.43464661 356.06195068 C-839.49185809 352.24323732 -840.54695968 348.42395004 -841.60037231 344.60418701 C-844.1092505 335.50753709 -846.62912053 326.41392983 -849.14831734 317.32013321 C-849.72604104 315.23446426 -850.30362973 313.1487579 -850.88108635 311.06301498 C-856.97264834 289.06081405 -863.12531249 267.07593297 -869.29820251 245.09642792 C-870.06429081 242.36862346 -870.83020246 239.64076946 -871.59606934 236.91290283 C-874.39572279 226.94146935 -877.19688133 216.97045993 -880 207 C-882.21976932 210.87549792 -883.27365535 215.09715874 -884.46411133 219.36767578 C-884.82420021 220.64076599 -884.82420021 220.64076599 -885.19156361 221.9395752 C-885.99218668 224.77376411 -886.78707814 227.60952848 -887.58203125 230.4453125 C-888.14981177 232.45932134 -888.71796555 234.47322499 -889.28646851 236.48703003 C-890.50043192 240.79002757 -891.71193163 245.09370808 -892.92147827 249.39794922 C-894.81323021 256.12970173 -896.71037656 262.85992564 -898.60864258 269.58984375 C-900.53248445 276.41125577 -902.4560697 283.23273915 -904.37779236 290.05474854 C-909.83869785 309.44003077 -915.32322218 328.8185486 -920.8230896 348.19281006 C-921.95371544 352.17574165 -923.08327452 356.15897483 -924.2124939 360.14230537 C-925.04535622 363.07975555 -925.87882101 366.01703449 -926.71248245 368.95425797 C-927.0943611 370.30006959 -927.47602749 371.64594146 -927.85746384 372.99187851 C-928.37201702 374.8072703 -928.88751934 376.62239299 -929.40307617 378.4375 C-929.83265877 379.95150391 -929.83265877 379.95150391 -930.2709198 381.49609375 C-930.80853757 383.34245373 -931.39188175 385.17564526 -932 387 C-971.93 387 -1011.86 387 -1053 387 C-1056.320625 377.904375 -1059.64125 368.80875 -1063.0625 359.4375 C-1064.18438721 356.36453613 -1065.30627441 353.29157227 -1066.4621582 350.12548828 C-1071.39212107 336.62181549 -1076.32199197 323.11810915 -1081.25145531 309.614254 C-1092.72560428 278.181859 -1104.20418998 246.75108995 -1115.68945312 215.32275391 C-1119.22986489 205.63465767 -1122.769688 195.94634634 -1126.30957031 186.25805664 C-1127.49542343 183.01252551 -1128.68130124 179.7670034 -1129.8671875 176.52148438 C-1133.46663164 166.6705451 -1137.06600147 156.81957871 -1140.66487122 146.96842957 C-1141.48113977 144.73412926 -1142.29745436 142.49984577 -1143.11381531 140.26557922 C-1145.11491376 134.7887793 -1147.11540834 129.31176057 -1149.11450195 123.83422852 C-1152.53592239 114.4619365 -1155.96189696 105.09148545 -1159.41775513 95.73182678 C-1160.84226242 91.87362131 -1162.26362574 88.01426067 -1163.68493652 84.15487671 C-1164.3474602 82.3591536 -1165.01173574 80.56407575 -1165.67785645 78.76968384 C-1166.58505421 76.32586265 -1167.486499 73.87999221 -1168.38671875 71.43359375 C-1168.65443588 70.7175296 -1168.92215302 70.00146545 -1169.19798279 69.26370239 C-1170.26059082 66.36118489 -1171 64.11840271 -1171 61 C-1127.44 61 -1083.88 61 -1039 61 C-1037.13423745 66.59728766 -1035.37555302 72.04685717 -1033.94140625 77.74194336 C-1033.7565268 78.46468602 -1033.57164736 79.18742868 -1033.3811655 79.93207264 C-1032.77184493 82.31721817 -1032.16717895 84.70351766 -1031.5625 87.08984375 C-1031.12554089 88.80388964 -1030.68827208 90.5178566 -1030.25071716 92.23175049 C-1029.31696314 95.89168919 -1028.38520419 99.55212756 -1027.45504761 103.21298218 C-1025.98907378 108.98243968 -1024.51856025 114.75073361 -1023.04711914 120.51879883 C-1021.53433875 126.44953434 -1020.02170771 132.38030728 -1018.51051331 138.31144714 C-1013.91241392 156.3568773 -1009.29080768 174.39622922 -1004.65844727 192.43289185 C-1003.65725017 196.33125076 -1002.65691272 200.2298296 -1001.65686607 204.12848377 C-1000.90758007 207.04907822 -1000.15775814 209.96953489 -999.40779495 212.88995552 C-999.05363328 214.26945617 -998.69966345 215.64900609 -998.34589767 217.02860832 C-996.71303284 223.39562701 -995.07314379 229.75990392 -993.36767578 236.10791016 C-993.12807632 237.00190018 -992.88847687 237.8958902 -992.64161682 238.81697083 C-992.21490889 240.40131174 -991.78397911 241.98452578 -991.34751892 243.56620789 C-990.45312564 246.88196683 -990 249.5284219 -990 253 C-988.68 253 -987.36 253 -986 253 C-985.91784744 252.44250061 -985.83569489 251.88500122 -985.75105286 251.31060791 C-984.09900077 241.23498755 -981.29584623 231.45407097 -978.63671875 221.609375 C-978.09062962 219.57436926 -977.54496012 217.53925087 -976.99967957 215.50402832 C-975.5366632 210.04742368 -974.06846369 204.5922264 -972.59926605 199.13728333 C-971.07438182 193.47221726 -969.55403294 187.80593502 -968.03369141 182.13964844 C-967.72948147 181.00587391 -967.42527153 179.87209938 -967.11184311 178.70396805 C-966.49487004 176.40448556 -965.87791782 174.10499748 -965.26098633 171.80550385 C-964.32911679 168.33288926 -963.39665279 164.86043469 -962.46411133 161.38800049 C-958.47412321 146.52610648 -954.51182554 131.65710366 -950.57421875 116.78125 C-950.07870827 114.9103344 -949.58317938 113.03942368 -949.08763123 111.16851807 C-947.00218966 103.29340184 -944.91882142 95.41775086 -942.84158421 87.54046631 C-942.00542697 84.37239566 -941.16656718 81.20504536 -940.32695961 78.03788757 C-939.94103308 76.57953141 -939.55634171 75.12084776 -939.1729641 73.66181946 C-938.65599135 71.69463161 -938.13453204 69.7286244 -937.61279297 67.76269531 C-937.32338837 66.6661261 -937.03398376 65.56955688 -936.73580933 64.4397583 C-936 62 -936 62 -935 61 C-933.40577964 60.90402796 -931.8072955 60.87812076 -930.21018982 60.87974548 C-929.17387421 60.87837082 -928.13755859 60.87699615 -927.06983948 60.87557983 C-925.35002113 60.88097275 -925.35002113 60.88097275 -923.59545898 60.88647461 C-922.39562378 60.88632858 -921.19578857 60.88618256 -919.95959473 60.8860321 C-916.66014809 60.88661106 -913.36076336 60.89164022 -910.0613277 60.89860606 C-906.61665703 60.90484027 -903.17198562 60.90544345 -899.72731018 60.90663147 C-893.2001727 60.90974459 -886.67305189 60.91795771 -880.14592177 60.92798096 C-872.71677984 60.9391427 -865.28763714 60.9446527 -857.85848892 60.94967639 C-842.57231628 60.96014034 -827.28616028 60.9777394 -812 61 C-811.51912435 62.87288411 -811.0382487 64.74576823 -810.55737305 66.61865234 C-810.2375798 67.86415863 -809.91778656 69.10966492 -809.58830261 70.39291382 C-808.85555454 73.24677252 -808.122819 76.10063445 -807.39009094 78.95449829 C-805.51324845 86.26446879 -803.63632603 93.57441874 -801.75909233 100.88428879 C-800.65575334 105.18065942 -799.55247185 109.47704481 -798.44921875 113.7734375 C-798.22500118 114.64660362 -798.00078362 115.51976974 -797.76977158 116.41939545 C-794.68357009 128.43835884 -791.60009011 140.458017 -788.51893616 152.4782753 C-786.88052543 158.86967266 -785.24142896 165.26089418 -783.60218048 171.65207672 C-783.20068766 173.21751162 -782.79923401 174.78295657 -782.39781952 176.34841156 C-776.98165846 197.47045489 -771.53806583 218.58451507 -765.94335938 239.66015625 C-765.73752731 240.43887085 -765.53169525 241.21758545 -765.31962585 242.01989746 C-764.9459424 243.4333015 -764.57030139 244.84619023 -764.19221497 246.25842285 C-763 250.77483401 -763 250.77483401 -763 253 C-762.01 253 -761.02 253 -760 253 C-759.76640274 251.9881665 -759.53280548 250.97633301 -759.29212952 249.93383789 C-756.76643711 239.05949825 -754.04946875 228.24317235 -751.24609375 217.4375 C-750.78759947 215.66456942 -750.32926035 213.89159871 -749.87106323 212.11859131 C-748.64844093 207.38974504 -747.42344421 202.6615172 -746.19778824 197.93345642 C-745.17583436 193.99040296 -744.15500415 190.04705892 -743.13413143 186.10372543 C-740.5231886 176.01872847 -737.90943661 165.93446173 -735.29441738 155.85052109 C-733.5705132 149.20222986 -731.84855669 142.55343697 -730.12792969 135.90429688 C-728.14110448 128.22655638 -726.15220497 120.54935768 -724.16024494 112.87294769 C-723.14206168 108.94916167 -722.12468873 105.02517083 -721.10958862 101.10058594 C-720.16395823 97.44498946 -719.21543876 93.79015441 -718.2647438 90.13587189 C-717.76210801 88.20109063 -717.26231544 86.2655714 -716.76266479 84.33001709 C-716.30260544 82.56515961 -716.30260544 82.56515961 -715.83325195 80.76464844 C-715.57397415 79.76512146 -715.31469635 78.76559448 -715.04756165 77.73577881 C-713.47433304 72.12538432 -711.71357883 66.56913118 -710 61 C-670.4 61 -630.8 61 -590 61 C-590.68222282 65.09333691 -591.23921041 68.05385981 -592.64233398 71.79272461 C-592.97615585 72.69063217 -593.30997772 73.58853973 -593.65391541 74.51365662 C-594.01433426 75.46692337 -594.37475311 76.42019012 -594.74609375 77.40234375 C-595.11726822 78.39827042 -595.48844269 79.39419708 -595.87086487 80.42030334 C-597.05465464 83.59463153 -598.24558918 86.76621315 -599.4375 89.9375 C-600.6248891 93.10555722 -601.81068205 96.2741896 -602.99342346 99.44398499 C-603.72840268 101.41288355 -604.46617241 103.38074337 -605.20713806 105.34739685 C-607.01877877 110.19167663 -608.66747637 115.00185544 -610 120 C-609.608125 119.3915625 -609.21625 118.783125 -608.8125 118.15625 C-586.06787657 84.82361221 -548.59210623 66.07095038 -509.8515625 58.37451172 C-495.99935469 55.81076321 -482.32163646 53.86298725 -468.21875 53.796875 C-467.21520477 53.78986069 -466.21165955 53.78284637 -465.17770386 53.77561951 C-461.95175653 53.75819197 -458.72599269 53.75176617 -455.5 53.75 C-453.8486203 53.74898788 -453.8486203 53.74898788 -452.16387939 53.74795532 C-435.92330654 53.76379069 -420.02370687 54.09355874 -404 57 C-403.03143066 57.17160645 -402.06286133 57.34321289 -401.06494141 57.52001953 C-361.13380246 64.83430084 -323.30787564 82.15886478 -299.19824219 116.15307617 C-272.79713873 154.82936348 -271 199.55891357 -271 245 C-351.52 245 -432.04 245 -515 245 C-511.35556959 276.49742517 -511.35556959 276.49742517 -494 302 C-477.01851672 314.82216728 -454.06299045 315.69493485 -433.6875 313.3125 C-420.64816206 311.16697742 -407.30912061 305.66574161 -399 295 C-393.73088337 286.47516903 -392.88641015 278.06085412 -391 268 C-351.4 268 -311.8 268 -271 268 C-271 270.64 -271 273.28 -271 276 C-270.45085937 275.01773438 -270.45085937 275.01773438 -269.890625 274.015625 C-258.21991226 254.34213781 -240.13350334 243.57616158 -219 236 C-219.75023437 235.45472656 -220.50046875 234.90945312 -221.2734375 234.34765625 C-228.20438296 229.24110324 -234.73647842 223.9235607 -241 218 C-241.78375 217.26910156 -242.5675 216.53820313 -243.375 215.78515625 C-257.81384954 201.90727553 -268.03801365 182.64976378 -269.203125 162.484375 C-269.52748507 136.64368944 -263.31754996 114.54943468 -245.3359375 95.37109375 C-214.04922907 63.61351512 -165.47555253 54.43630295 -122.39379883 53.85473633 C-120.08156795 53.84159034 -117.76929844 53.83423619 -115.45703125 53.83203125 C-114.20854904 53.82870285 -112.96006683 53.82537445 -111.67375183 53.82194519 C-109.04935063 53.8169166 -106.42494312 53.81453559 -103.80053711 53.81469727 C-99.84022192 53.81251527 -95.88018783 53.7943275 -91.91992188 53.77539062 C-68.55319102 53.7267562 -68.55319102 53.7267562 -57.49702454 55.38594055 C-50.78545111 56.36548014 -45.62221835 55.92119254 -40.01611328 51.91577148 C-39.4539209 51.48981689 -38.89172852 51.0638623 -38.3125 50.625 C-37.71163574 50.18164307 -37.11077148 49.73828613 -36.49169922 49.28149414 C-30.26685757 44.60098343 -24.54323697 39.46243176 -19 34 C-18.26007813 33.27296875 -17.52015625 32.5459375 -16.7578125 31.796875 C-7.87033535 22.45983674 -3.38200233 12.40067519 0 0 Z M-140 133 C-147.4099405 145.41665706 -150.3677965 157.49312262 -146.8125 171.875 C-143.76693391 181.49109294 -138.20862891 188.63773392 -129.2734375 193.4765625 C-113.02397843 200.80811264 -94.19343882 200.93073025 -77.55078125 194.7109375 C-67.23602697 189.87063875 -61.14591327 183.65602502 -57 173 C-54.23578008 163.01031916 -54.33757663 148.30725268 -59 139 C-64.94447245 128.75921101 -74.05673146 123.78863504 -85 120 C-90.38069542 118.74723629 -95.62448993 118.77820774 -101.125 118.75 C-102.10726563 118.729375 -103.08953125 118.70875 -104.1015625 118.6875 C-117.37132661 118.61765914 -131.17789489 122.52594692 -140 133 Z M-612 121 C-611 123 -611 123 -611 123 Z M-498.04296875 148.78125 C-507.72629131 159.75954783 -511.62577998 171.75467987 -514 186 C-475.06 186 -436.12 186 -396 186 C-396 170.07306309 -399.53148519 157.91377668 -410.62109375 146.2578125 C-424.58571041 133.0040384 -441.90195305 132.41456046 -460.12353516 132.87255859 C-474.14664415 133.49385064 -487.87364034 138.97039514 -498.04296875 148.78125 Z M-175.59765625 397.078125 C-181.49752026 405.1637325 -182.0419245 413.12802852 -181 423 C-178.6102225 432.73802383 -173.28882539 438.53072343 -164.890625 443.703125 C-157.78027255 446.89317502 -150.5003493 447.29577972 -142.80541992 447.2746582 C-141.828517 447.27976913 -140.85161407 447.28488007 -139.84510803 447.29014587 C-136.64016461 447.30395879 -133.43543827 447.30309118 -130.23046875 447.30078125 C-127.98521343 447.30467306 -125.73995885 447.30900872 -123.4947052 447.31376648 C-118.79682017 447.32121112 -114.09901031 447.32095039 -109.40112305 447.31567383 C-103.40619939 447.30988516 -97.41158529 447.32680446 -91.41671276 447.3500185 C-86.78133877 447.36481232 -82.14603833 447.3656198 -77.51064491 447.36250877 C-75.30164286 447.36301926 -73.0926364 447.36820539 -70.88365746 447.37832069 C-48.96635308 447.82980082 -48.96635308 447.82980082 -30 438 C-22.79948108 430.24202155 -21.58030503 423.06930918 -21.75390625 412.6328125 C-22.27524756 404.93682168 -25.22021955 399.12924239 -31 394 C-39.34233678 388.3487396 -46.82872876 386.7001675 -56.77197266 386.69360352 C-57.84597321 386.68528 -58.91997375 386.67695648 -60.02651978 386.66838074 C-63.57240442 386.6443135 -67.11810486 386.63551135 -70.6640625 386.62890625 C-73.13780776 386.61993561 -75.61155247 386.61081369 -78.08529663 386.60154724 C-83.27188432 386.58506228 -88.45840752 386.57735833 -93.64501953 386.57446289 C-100.26905345 386.56908772 -106.89247507 386.53144018 -113.51633644 386.48571873 C-118.62781955 386.45587166 -123.7391568 386.44873762 -128.85071945 386.44773674 C-131.29140392 386.44354767 -133.73208936 386.43116661 -136.17268753 386.41021919 C-157.90791056 385.75937474 -157.90791056 385.75937474 -175.59765625 397.078125 Z " fill="#FFFFFF" transform="translate(2066,1992)"/>
<path d="M0 0 C1 1 1 1 1.12304783 2.731637 C1.12212604 3.49027263 1.12120424 4.24890825 1.12025452 5.03053284 C1.12162918 5.89856537 1.12300385 6.7665979 1.12442017 7.66093445 C1.12082489 8.62046524 1.11722961 9.57999603 1.11352539 10.56860352 C1.11367142 11.57336731 1.11381744 12.5781311 1.1139679 13.61334229 C1.1132683 16.95188517 1.10547374 20.29037305 1.09765625 23.62890625 C1.09579224 25.93676218 1.09436826 28.24461851 1.09336853 30.55247498 C1.08954204 36.64017826 1.07971065 42.72785786 1.06866455 48.81555176 C1.05845323 55.02221354 1.05387151 61.22887913 1.04882812 67.43554688 C1.0380885 79.62370835 1.02101052 91.81185221 1 104 C0.41721283 104.00808685 -0.16557434 104.01617371 -0.76602173 104.02450562 C-6.8995537 104.11138918 -13.03279305 104.21091537 -19.16601562 104.31738281 C-21.44688962 104.35537591 -23.72781751 104.39027713 -26.00878906 104.421875 C-49.23787984 104.74761159 -74.07955145 105.10830872 -92.16015625 121.96875 C-108.15901476 139.63203328 -110.11507368 163.64276014 -110.20532227 186.34204102 C-110.21491669 187.88029738 -110.22492765 189.41855119 -110.23532104 190.95680237 C-110.26220686 195.10901313 -110.28330411 199.26123507 -110.30332303 203.41348386 C-110.32528405 207.7616738 -110.35262296 212.10982995 -110.37937927 216.45799255 C-110.42917003 224.68126188 -110.47415902 232.90455011 -110.51740164 241.12785619 C-110.57615423 252.24750243 -110.64236743 263.36710411 -110.70815182 274.48671055 C-110.81151334 291.99111029 -110.90494405 309.49554862 -111 327 C-151.59 327 -192.18 327 -234 327 C-234.33 229.98 -234.66 132.96 -235 33 C-241.27 50.16 -247.54 67.32 -254 85 C-260.36881513 102.3271122 -260.36881513 102.3271122 -263.37774658 110.47793579 C-265.54405362 116.34658444 -267.70728838 122.21636612 -269.87109375 128.0859375 C-270.3040979 129.26031876 -270.73710205 130.43470001 -271.18322754 131.64466858 C-275.50416023 143.36470381 -279.81726207 155.08760893 -284.125 166.8125 C-284.49040894 167.80704193 -284.85581787 168.80158386 -285.2322998 169.82626343 C-290.94482115 185.37720853 -296.63187129 200.93738157 -302.3125 216.5 C-309.19872167 235.36540981 -316.11829075 254.2183738 -323.0625 273.0625 C-323.49003571 274.22281738 -323.91757141 275.38313477 -324.35806274 276.57861328 C-330.5543007 293.3923296 -336.77642977 310.19636039 -343 327 C-382.93 327 -422.86 327 -464 327 C-473.5 292.875 -473.5 292.875 -476.70068359 281.3762207 C-481.73540247 263.29219366 -486.77727218 245.21020119 -491.8347702 227.13253021 C-492.65962947 224.18381599 -493.48419929 221.23502099 -494.30865479 218.28619385 C-494.71252851 216.84167091 -494.71252851 216.84167091 -495.12456131 215.3679657 C-495.66332888 213.4409368 -496.20208375 211.51390436 -496.74082565 209.58686829 C-498.31435885 203.95918402 -499.8898611 198.33205555 -501.46676064 192.70531368 C-502.4573257 189.16898531 -503.44605774 185.63214621 -504.43433762 182.0951786 C-504.88950457 180.46764743 -505.34542301 178.84032618 -505.80220413 177.2132473 C-508.71124258 166.84952677 -511.44545456 156.45691242 -514 146 C-514.66 146 -515.32 146 -516 146 C-516.12762222 147.01347 -516.25524445 148.02694 -516.38673401 149.07112122 C-516.96643444 152.7849628 -517.79344042 156.24693876 -518.81225586 159.86206055 C-518.99549439 160.51694899 -519.17873293 161.17183743 -519.36752415 161.84657097 C-519.9790314 164.02784419 -520.59692295 166.20725449 -521.21484375 168.38671875 C-521.65870274 169.96473252 -522.10217346 171.54285554 -522.54528809 173.12107849 C-523.75200089 177.4145323 -524.96432548 181.70638349 -526.17768478 185.99796295 C-527.45309343 190.51255903 -528.72339327 195.02859241 -529.99438477 199.54443359 C-533.02922361 210.32274876 -536.07274892 221.0986034 -539.11706543 231.87424469 C-540.62428384 237.21008282 -542.13044617 242.54621903 -543.63671875 247.88232422 C-544.86192456 252.22234615 -546.08719267 256.56235048 -547.3125 260.90234375 C-547.72304123 262.35648273 -547.72304123 262.35648273 -548.14187622 263.83999825 C-554.08686035 284.89551923 -560.04474731 305.94737699 -566 327 C-605.93 327 -645.86 327 -687 327 C-693.71034689 309.30908547 -700.36872186 291.6319165 -706.77313232 273.83267212 C-709.04482487 267.52048539 -711.32519257 261.2114337 -713.60546875 254.90234375 C-713.95026402 253.9480652 -713.95026402 253.9480652 -714.30202484 252.97450829 C-718.7840079 240.57154025 -723.31799457 228.18807671 -727.875 215.8125 C-734.67385948 197.34351783 -741.44120747 178.8632333 -748.1875 160.375 C-748.67543455 159.03789236 -749.16336994 157.70078502 -749.65130615 156.36367798 C-751.62081296 150.96644024 -753.59014624 145.56913921 -755.5592041 140.17173767 C-760.15683653 127.56914468 -764.75727912 114.96757857 -769.35828972 102.36621857 C-771.01360905 97.83248416 -772.66850868 93.29859669 -774.32324219 88.76464844 C-775.26884665 86.17381588 -776.21448615 83.5829961 -777.16015625 80.9921875 C-777.39457806 80.34995239 -777.62899986 79.70771729 -777.87052536 79.04602051 C-781.21100221 69.89481474 -784.55561652 60.74512871 -787.90280151 51.59637451 C-789.79849181 46.41489134 -791.69314801 41.23303023 -793.58756828 36.05108261 C-795.13953814 31.80616969 -796.69291161 27.56177384 -798.2473135 23.31775093 C-798.97244644 21.33712382 -799.69684934 19.35623161 -800.4209137 17.37521362 C-801.30618069 14.95315021 -802.1926317 12.53151913 -803.08042908 10.11038208 C-803.66117943 8.51974442 -803.66117943 8.51974442 -804.25366211 6.89697266 C-804.59288193 5.97002594 -804.93210175 5.04307922 -805.28160095 4.08804321 C-806 2 -806 2 -806 1 C-762.11 1 -718.22 1 -673 1 C-670.09918086 11.44294891 -667.20637236 21.86213581 -664.53904724 32.36335754 C-664.34302855 33.13405893 -664.14700985 33.90476032 -663.94505119 34.6988163 C-663.74275461 35.49430067 -663.54045803 36.28978504 -663.33203125 37.109375 C-662.89500059 38.82175702 -662.45778514 40.5340919 -662.020401 42.24638367 C-661.09482214 45.87117688 -660.17033602 49.49624616 -659.24676514 53.12155151 C-657.79366565 58.82512659 -656.3378354 64.52800223 -654.88134766 70.23071289 C-654.63655922 71.18916265 -654.39177078 72.1476124 -654.13956451 73.13510609 C-653.6429485 75.0795191 -653.14632066 77.0239291 -652.64968109 78.96833611 C-651.90091655 81.90011946 -651.15237352 84.8319593 -650.40386963 87.7638092 C-645.77000144 105.91235493 -641.11582975 124.05565129 -636.45116806 142.19630432 C-635.88015125 144.41746252 -635.30947741 146.63870855 -634.73892212 148.85998535 C-633.84389258 152.3444398 -632.9481689 155.82871504 -632.05187798 159.31284523 C-631.57944131 161.14984238 -631.10758337 162.98698834 -630.63575745 164.82414246 C-629.41046117 169.58334228 -628.18410892 174.34100361 -626.89019775 179.08206177 C-626.70496614 179.76403405 -626.51973454 180.44600634 -626.32888985 181.14864445 C-625.80571871 183.06971975 -625.27800199 184.98955545 -624.75003052 186.90931702 C-624 190 -624 190 -624 193 C-622.68 193 -621.36 193 -620 193 C-619.82855217 191.32083244 -619.82855217 191.32083244 -619.65364075 189.60774231 C-619.03669472 184.70682331 -617.83036123 180.03781328 -616.54174805 175.27612305 C-616.29050328 174.33089688 -616.03925852 173.38567072 -615.78040028 172.41180134 C-614.94583784 169.27708327 -614.10379087 166.14442709 -613.26171875 163.01171875 C-612.66640711 160.78161769 -612.07156882 158.55139022 -611.47717285 156.32104492 C-609.88287502 150.34388894 -608.28218571 144.36846185 -606.68029404 138.39333725 C-605.0262906 132.2193804 -603.37824968 126.04383277 -601.72973633 119.8684082 C-599.08185114 109.95185625 -596.43081242 100.03615307 -593.77734375 90.12109375 C-589.51372739 74.18847854 -585.26561767 58.25174701 -581.01953125 42.31445312 C-577.3492892 28.54218624 -573.67419336 14.77121327 -570 1 C-529.41 1 -488.82 1 -447 1 C-445.10881184 6.04316844 -443.48935618 10.54169184 -442.20092773 15.68212891 C-441.87818375 16.95976105 -441.55543976 18.23739319 -441.22291565 19.55374146 C-440.87642716 20.94466988 -440.52998812 22.33561063 -440.18359375 23.7265625 C-439.81159655 25.2052612 -439.4391429 26.68384514 -439.06626892 28.162323 C-438.2688723 31.32723844 -437.47415742 34.49280994 -436.68157959 37.65893555 C-434.77794646 45.26220523 -432.85982077 52.86182502 -430.94296265 60.4617691 C-430.28112408 63.08630215 -429.61980208 65.71096504 -428.95849609 68.33563232 C-424.67102185 85.34373137 -420.3137112 102.33363739 -415.93700027 119.3189621 C-415.38720986 121.45261539 -414.83760403 123.58631615 -414.28805542 125.72003174 C-413.58580015 128.44659321 -412.88333316 131.1731 -412.18070984 133.89956665 C-411.4995327 136.54294577 -410.81900646 139.18649115 -410.13899231 141.83016968 C-408.47695888 148.28863533 -406.8075159 154.74502642 -405.12159538 161.19730377 C-404.27547856 164.43796144 -403.43306801 167.67957697 -402.59108353 170.92131042 C-402.18468403 172.48200274 -401.77654726 174.04224382 -401.36658859 175.602005 C-400.79810034 177.76545248 -400.23558252 179.93037261 -399.67431641 182.09570312 C-399.35057037 183.33421021 -399.02682434 184.57271729 -398.69326782 185.84875488 C-398 189 -398 189 -398 193 C-396.68 193 -395.36 193 -394 193 C-393.84754066 192.17122093 -393.84754066 192.17122093 -393.69200134 191.32569885 C-392.2142776 183.60279418 -390.28285969 176.01271063 -388.31640625 168.40234375 C-387.94508953 166.95737453 -387.57398649 165.51235038 -387.20307922 164.067276 C-386.20172338 160.16911476 -385.19686627 156.27186416 -384.191185 152.37481689 C-383.3457727 149.09728093 -382.50226877 145.81925493 -381.65867615 142.54125023 C-375.43276539 118.3516914 -369.16424063 94.1731633 -362.875 70 C-362.58586164 68.88838564 -362.58586164 68.88838564 -362.29088211 67.75431442 C-359.91116885 58.60577159 -357.52529999 49.4588652 -355.12976074 40.31445312 C-354.33747942 37.29006421 -353.54679305 34.26526304 -352.75695801 31.24023438 C-351.71223777 27.24014144 -350.66379742 23.24103944 -349.6128273 19.24258423 C-349.2118084 17.71471692 -348.81196066 16.18654171 -348.41332626 14.65805054 C-347.86356834 12.55112054 -347.30953731 10.44536028 -346.75439453 8.33984375 C-346.43906769 7.13706787 -346.12374084 5.93429199 -345.79885864 4.69506836 C-345 2 -345 2 -344 1 C-341.28146243 0.90214175 -338.58833853 0.87006434 -335.86936951 0.87974548 C-334.57564355 0.87846385 -334.57564355 0.87846385 -333.25578171 0.87715632 C-330.34294519 0.87549886 -327.43016527 0.8810272 -324.51733398 0.88647461 C-322.4383952 0.88675645 -320.35945631 0.88659881 -318.28051758 0.8860321 C-312.61752561 0.88574401 -306.95455463 0.89164269 -301.29156756 0.89860606 C-295.38050107 0.90483759 -289.46943414 0.90544324 -283.55836487 0.90663147 C-272.35632305 0.90974538 -261.15429094 0.91795957 -249.9522534 0.92798096 C-237.20277637 0.93914025 -224.45329889 0.94465208 -211.7038182 0.94967639 C-185.46920674 0.96014214 -159.23460391 0.97774273 -133 1 C-131.6820487 6.18519685 -130.54636003 11.27840119 -129.7109375 16.5703125 C-129.60278717 17.25503632 -129.49463684 17.93976013 -129.38320923 18.64523315 C-129.15794568 20.0784702 -128.93452256 21.51199766 -128.71289062 22.94580078 C-128.37459165 25.12763363 -128.0274833 27.30794448 -127.6796875 29.48828125 C-127.46040599 30.89054199 -127.24163822 32.29288318 -127.0234375 33.6953125 C-126.82669434 34.95359863 -126.62995117 36.21188477 -126.42724609 37.50830078 C-126.03451787 40.71790027 -125.91880252 43.77131543 -126 47 C-125.34 47 -124.68 47 -124 47 C-123.87625 45.96939453 -123.87625 45.96939453 -123.75 44.91796875 C-122.81111106 41.26510398 -121.04933992 38.42693205 -119 35.3125 C-118.59918213 34.69818115 -118.19836426 34.0838623 -117.78540039 33.45092773 C-104.49011757 13.5352639 -84.85567496 0.3637611 -61.5625 -4.8125 C-40.93511638 -8.90818989 -19.49546146 -8.55334475 0 0 Z " fill="#FFFFFF" transform="translate(3519,2052)"/>
<path d="M0 0 C0.33 23.1 0.66 46.2 1 70 C4.3 65.05 7.6 60.1 11 55 C12.95009048 52.46701492 14.83062308 50.06301609 16.9375 47.6875 C17.43709229 47.11684814 17.93668457 46.54619629 18.45141602 45.95825195 C42.21180655 19.26854952 75.91314991 4.58335037 110.4375 -2.1875 C111.61493774 -2.42001465 111.61493774 -2.42001465 112.81616211 -2.65722656 C129.20436447 -5.680309 145.43515825 -6.37479964 162.0625 -6.3125 C163.61629364 -6.30926727 163.61629364 -6.30926727 165.20147705 -6.30596924 C201.64245687 -6.18436575 237.6449892 -0.5919321 270 17 C271.04671875 17.55429688 272.0934375 18.10859375 273.171875 18.6796875 C306.14186888 36.90912856 329.03764869 69.00685308 339.43359375 104.8046875 C340.81494269 109.83109598 341.94907183 114.89535076 343 120 C343.2477417 121.15556396 343.2477417 121.15556396 343.50048828 122.33447266 C348.92648685 148.88090415 348.48541764 180.51276243 343 207 C342.86078125 207.73105957 342.7215625 208.46211914 342.578125 209.21533203 C335.26561734 247.25899166 314.08623614 281.93039033 281.87597656 303.765625 C276.73716589 307.14691427 271.4454494 310.14297049 266 313 C264.36804687 313.87398437 264.36804687 313.87398437 262.703125 314.765625 C232.03793086 330.16760034 196.77414943 334.45016956 162.875 334.3125 C161.93700562 334.31067719 160.99901123 334.30885437 160.03259277 334.30697632 C145.16769652 334.25850864 130.66066227 333.66061948 116 331 C115.03835938 330.82839355 114.07671875 330.65678711 113.0859375 330.47998047 C92.97686981 326.76922078 73.93892355 320.87897022 56 311 C54.94554688 310.43539062 53.89109375 309.87078125 52.8046875 309.2890625 C38.62350667 301.40240058 25.13792775 290.69801052 15 278 C14.60055176 277.50177734 14.20110352 277.00355469 13.78955078 276.49023438 C-2.31034644 256.16985983 -11.70614877 233.21570304 -17 208 C-17.16661133 207.23204102 -17.33322266 206.46408203 -17.50488281 205.67285156 C-24.30446169 172.66040341 -21.29098796 136.35774533 -13 104 C-46.96726841 103.46558938 -46.96726841 103.46558938 -79 113 C-79.86882813 113.43054687 -80.73765625 113.86109375 -81.6328125 114.3046875 C-93.73533493 120.85559414 -101.63269921 132.12575837 -105.66845703 145.15869141 C-109.19352433 157.93880476 -110.15391238 170.28546343 -110.20532227 183.50390625 C-110.2149136 185.07157136 -110.2249244 186.63923395 -110.23532104 188.20689392 C-110.26224023 192.44387217 -110.28331968 196.68086141 -110.30332303 200.9178772 C-110.32526316 205.35282367 -110.35261241 209.78773676 -110.37937927 214.22265625 C-110.42919801 222.61241418 -110.47417676 231.00219073 -110.51740164 239.39198494 C-110.57612309 250.73505061 -110.64235153 262.07807231 -110.70815182 273.42109871 C-110.81155716 291.2807028 -110.90495881 309.1403449 -111 327 C-151.59 327 -192.18 327 -234 327 C-234 219.42 -234 111.84 -234 1 C-200.67 1 -167.34 1 -133 1 C-131.03270762 11.49222601 -129.10941912 21.97906572 -127.3125 32.5 C-127.0853995 33.82423814 -126.85818623 35.14845695 -126.63085938 36.47265625 C-126.08614058 39.64825094 -125.54252923 42.82403064 -125 46 C-124.54520264 45.10498779 -124.09040527 44.20997559 -123.62182617 43.2878418 C-119.79068195 35.81644735 -115.62614508 29.29226426 -110 23 C-109.26136719 22.16726562 -108.52273437 21.33453125 -107.76171875 20.4765625 C-80.23055815 -8.81190623 -36.17865031 -13.15587284 0 0 Z M117.9375 94.41015625 C105.92412371 110.8558871 102.86525002 127.56718111 102.796875 147.5625 C102.79117493 148.86719238 102.78547485 150.17188477 102.77960205 151.51611328 C102.76914488 154.27295311 102.76326893 157.02976427 102.75976562 159.78662109 C102.75539469 162.58135127 102.74154732 165.37577034 102.71875 168.17041016 C102.36118276 204.03661521 102.36118276 204.03661521 119 235 C133.5079387 248.62021518 151.42954201 250.70593854 170.54833984 250.12744141 C184.56149713 249.39901399 198.48841829 243.99541318 208.0390625 233.50390625 C220.25310228 217.90789131 223.31550778 199.64453092 223.30078125 180.30078125 C223.30720894 178.38908394 223.30720894 178.38908394 223.31376648 176.43876648 C223.31947686 173.75696781 223.32098558 171.07555812 223.31567383 168.39379883 C223.31104999 165.68171574 223.3179395 162.9700818 223.33618164 160.25805664 C223.49912616 135.81599756 223.59920194 111.83150883 205.97265625 92.8125 C193.144749 80.56451623 177.47225141 77.48488525 160.31176758 77.578125 C144.82785985 77.98123436 128.40668344 82.17628091 117.9375 94.41015625 Z " fill="#FFFFFF" transform="translate(2407,2052)"/>
<path d="M0 0 C1.11002571 0.86755516 2.21668829 1.73955902 3.3125 2.625 C6.4537162 1.17575707 9.05135895 -0.61204231 11.8125 -2.6875 C23.22602372 -10.76787077 35.28836594 -13.76289798 49.0625 -13.6875 C50.66593262 -13.67904053 50.66593262 -13.67904053 52.30175781 -13.67041016 C68.80397934 -13.41594842 81.72417736 -8.05148666 94.3125 2.625 C95.24642578 3.39457031 95.24642578 3.39457031 96.19921875 4.1796875 C97.57871753 5.31801517 98.94716773 6.46971885 100.3125 7.625 C100.73917969 7.1403125 101.16585937 6.655625 101.60546875 6.15625 C112.65208272 -5.6875423 127.06680269 -12.95800733 143.24609375 -13.78125 C161.88270316 -14.26516725 178.12124349 -11.59234706 192.27734375 1.5 C194.30686253 2.92227379 194.30686253 2.92227379 196.78125 2.01953125 C199.33035583 0.61516276 201.5623276 -0.92266878 203.875 -2.6875 C219.1453594 -13.61115501 237.36246499 -15.48947245 255.61083984 -13.0703125 C271.12966792 -10.09191318 286.06695162 -0.12169708 295.3125 12.625 C306.72096867 29.87788268 309.3260647 46.81533044 306.875 67.27734375 C303.27648549 84.03292694 292.51852074 99.22717089 278.3125 108.625 C261.90959632 118.20460414 243.52836559 121.90847428 224.69140625 117.74609375 C214.11009167 114.90104171 204.73906384 109.56363005 196.3125 102.625 C193.1038857 104.13275163 190.25381691 105.96349118 187.3125 107.9375 C171.27252645 118.21678879 152.92661079 121.49682933 134.15625 117.97265625 C122.18409125 114.83131279 112.0876246 109.05573029 103.3359375 100.34765625 C101.37468651 98.30087721 101.37468651 98.30087721 98.3125 98.625 C96.86326691 99.90008899 95.4770817 101.24731951 94.125 102.625 C89.84639905 106.59083772 85.5884609 109.39419842 80.375 112 C79.74376221 112.32097656 79.11252441 112.64195312 78.4621582 112.97265625 C69.26596956 117.39074156 60.164564 119.17199106 50 119.0625 C48.99598145 119.05420166 47.99196289 119.04590332 46.95751953 119.03735352 C31.48679577 118.68727513 16.7285114 113.38866789 5.3125 102.625 C1.63057314 103.94322073 -1.14879726 105.57093074 -4.25 107.9375 C-19.28412202 118.67615859 -38.10020724 121.10893076 -56.11425781 118.23828125 C-74.07624113 114.262632 -88.82137031 103.30561944 -98.7109375 87.96875 C-107.93764924 72.3599254 -110.4188714 54.14592114 -107 36.33203125 C-102.24826444 18.493224 -90.87131545 3.79400231 -75.0625 -5.5625 C-50.98932236 -18.9783478 -21.95378985 -16.30193852 0 0 Z " fill="#723FA2" transform="translate(3626.6875,2263.375)"/>
<path d="M0 0 C14.01059174 9.93103709 25.62072231 24.50738596 28.72314453 41.81494141 C31.22456707 61.5572092 28.30069979 79.52347582 16.89453125 96.05078125 C7.11671901 108.56291975 -6.63583416 118.21264743 -22.35546875 121.55859375 C-44.00478107 124.18064337 -62.45959453 121.25284609 -80.0234375 107.66015625 C-93.02370303 96.04180871 -102.28788026 78.65867432 -103.3828125 61.19140625 C-104.10432512 40.82676156 -97.90666451 23.17932379 -84.08203125 8.015625 C-62.52170569 -14.05388974 -25.33855581 -16.56164642 0 0 Z " fill="#4DA3DF" transform="translate(3905,2260)"/>
<path d="M0 0 C1.27742463 1.03357299 2.55092965 2.07213388 3.8125 3.125 C3.28462891 3.79982422 3.28462891 3.79982422 2.74609375 4.48828125 C-11.98601886 23.68233919 -17.05627702 39.95184256 -15.1875 64.125 C-13.15426381 77.89421475 -5.53527919 90.07613737 3.8125 100.125 C-5.51216861 110.7358298 -19.85179693 117.09169895 -33.80957031 118.36401367 C-54.50499765 119.36690029 -71.13714436 115.61884666 -87.375 102 C-99.25152322 90.75358171 -107.86530727 75.12058238 -108.5234375 58.5859375 C-108.85449144 36.32710748 -104.01744441 19.73663692 -88.390625 3.2265625 C-64.00915611 -19.80038034 -26.06321223 -20.09546737 0 0 Z " fill="#FEDD59" transform="translate(3627.1875,2263.875)"/>
<path d="M0 0 C1.05541992 0.01015137 2.11083984 0.02030273 3.19824219 0.03076172 C18.81885453 0.34240091 31.05265671 5.2505439 43.515625 14.6640625 C45.0625 16.375 45.0625 16.375 45.0625 20.375 C43.8125 21.953125 43.8125 21.953125 42.0625 23.625 C30.11824189 36.6374438 26.12132952 54.06912442 26.65234375 71.26171875 C27.62591208 87.45835559 34.85162193 101.78929014 46.0625 113.375 C42.91868975 121.141061 33.39724839 124.94952882 26.19140625 128.234375 C17.66404387 131.34297652 9.83654485 132.91037881 0.75 132.8125 C-0.25401855 132.80420166 -1.25803711 132.79590332 -2.29248047 132.78735352 C-18.83752798 132.41296486 -33.62138792 126.3478683 -45.66015625 114.81640625 C-58.57955658 100.96627726 -65.55810646 84.91809472 -65.375 66 C-65.36742676 64.90091309 -65.35985352 63.80182617 -65.35205078 62.66943359 C-65.18769672 54.57529592 -64.38343805 47.79125797 -60.9375 40.375 C-60.50179687 39.43011719 -60.06609375 38.48523437 -59.6171875 37.51171875 C-51.25888535 21.00064647 -38.01812425 8.54439308 -20.46606445 2.52783203 C-13.57516206 0.44147653 -7.17523349 -0.10007139 0 0 Z " fill="#ED217F" transform="translate(3775.9375,2249.625)"/>
</svg>
